<svg id="Layer_1" data-name="Layer 1" xmlns="http://www.w3.org/2000/svg" xmlns:xlink="http://www.w3.org/1999/xlink" viewBox="0 0 174 61"><defs><style>.cls-1{fill:none;}.cls-2{fill:#8b191b;}.cls-3{fill:#4e5053;}.cls-4{fill:#fff;}.cls-5{fill:#676767;}.cls-6{clip-path:url(#clip-path);}</style><clipPath id="clip-path"><path class="cls-1" d="M25,56.72C51.63,42.19,45.28,13.25,43.45,9H6.57C4.74,13.25-1.6,42.19,25,56.72"/></clipPath></defs><title>SHC_logo</title><g id="_Group_" data-name="&lt;Group&gt;"><path class="cls-2" d="M84.75,30.88c-4.15,0-4.46-3.12-4.46-4.09a4.09,4.09,0,0,1,2.94-4.1c2.71-1,3.3-1.11,5.17-1.7v-.48a4.18,4.18,0,0,0-.19-1.7,2.75,2.75,0,0,0-2.78-1.76A3.32,3.32,0,0,0,82.36,19l-.78-.46c.49-1.72,2.23-3.44,5.23-3.44,2.11,0,3.51.6,4.37,1.9a7.61,7.61,0,0,1,.69,4c0,1.31,0,2.77-.06,4,0,.82-.05,1.53-.05,1.95,0,1.07.17,1.91,1.07,1.91.37,0,.45-.1.77-.37l.48.57a3.91,3.91,0,0,1-3.19,1.92,2.2,2.2,0,0,1-2.32-1.55,5.19,5.19,0,0,1-3.82,1.57m3.65-8a18.13,18.13,0,0,0-3.35,1.27,2.5,2.5,0,0,0-1.31,2.4A2,2,0,0,0,86,28.75a4.21,4.21,0,0,0,2.4-.71V22.87ZM54.25,30.06c0-1.53,0-2.83-.12-4.4H55a3.22,3.22,0,0,0,.7,2.16A5.11,5.11,0,0,0,59.27,29c2.9,0,4.27-1.1,4.27-3.46,0-2-1.26-2.85-3-4l-.27-.18L58.46,20.1c-2.53-1.68-3.83-3-3.83-5.72,0-1.31.51-5.6,6.9-5.6a31.24,31.24,0,0,1,5,.41c0,.2,0,1.18,0,2s0,1.27.05,2.44h-.79A2.92,2.92,0,0,0,65,11.51a5.22,5.22,0,0,0-3.41-.9c-3.39,0-3.78,1.74-3.78,3,0,1.8.91,2.41,2.91,3.73L63,18.91c2,1.32,3.81,2.57,3.81,5.82,0,5.54-5.15,6.13-7.36,6.13A15.75,15.75,0,0,1,54.25,30.06Zm41.2-14a13.82,13.82,0,0,0,3.09-.22,5.55,5.55,0,0,0,2-.68l.31.19v1.21a7.38,7.38,0,0,1,4.41-1.48c2.74,0,4.55,1.29,5.06,3.63a15.76,15.76,0,0,1,.19,2.73v4.45c0,2.51.1,3.22.57,3.66a2.35,2.35,0,0,0,1.49.46v.71c-1-.05-2.73-.15-3.79-.15a35.84,35.84,0,0,0-3.8.17v-.71a2.77,2.77,0,0,0,1.53-.56c.43-.44.5-1.32.57-3.22,0-.56,0-1.75,0-2.62a33,33,0,0,0-.12-3.49,2.88,2.88,0,0,0-3.23-2.89,6,6,0,0,0-2.87.64v8c0,2.51.11,3.22.59,3.66A2.32,2.32,0,0,0,103,30v.71c-1.28-.06-2.78-.15-3.75-.15a27.16,27.16,0,0,0-3.84.17V30A2.29,2.29,0,0,0,97,29.39c.45-.54.49-1.83.49-4.43V20.61c0-1.88,0-2.68-.29-3.09S96.5,17,95.45,17v-.87ZM114.38,30a2.21,2.21,0,0,0,1.67-.65c.47-.53.5-1.81.5-4.41V17.4h-2v-.85a8.38,8.38,0,0,0,2-1,25.28,25.28,0,0,1,.23-4c.58-3.14,2.65-4.75,6.09-4.75A6.27,6.27,0,0,1,126.74,8l0,.32-1.5,2.1h-.39a2.67,2.67,0,0,0-2.65-2A2.29,2.29,0,0,0,120.7,9c-.66.66-.75,1.64-.75,3.59V15.5h3.4V17.4h-3.4v8.46c0,2,.07,3,.33,3.38.41.64,1.77.72,2.42.69v.81c-1.13-.06-2.87-.14-4.17-.14a35,35,0,0,0-4.15.17V30Zm17.54,1c-4.63,0-7.44-2.9-7.44-7.75,0-3.78,2-8.17,7.76-8.17,4.67,0,7.43,2.9,7.43,7.76C139.68,26.61,137.66,31,131.93,31Zm.21-14.16a3.23,3.23,0,0,0-2.16.68c-1.22,1-1.85,2.89-1.85,5.55,0,1,.19,6.16,4,6.16a3.22,3.22,0,0,0,2.14-.68c1.24-1,1.84-2.89,1.84-5.56C136.06,22,135.88,16.86,132.13,16.86Zm9.08-.83a14.33,14.33,0,0,0,3.34-.27,7.75,7.75,0,0,0,1.83-.5l.26.13v1.33a5,5,0,0,1,3.54-1.42,3.67,3.67,0,0,1,2.65.94v.48l-1.28,2.35h-.64a2.71,2.71,0,0,0-2.53-1.38,2.87,2.87,0,0,0-1.67.48v7.69c0,2,.07,3,.32,3.36.42.64,1.69.7,2.42.68v.85c-1.05-.05-2.85-.15-4.15-.15a35.81,35.81,0,0,0-4.16.17V30a2.15,2.15,0,0,0,1.67-.65c.47-.53.49-1.78.49-4.38V20.61c0-1.88,0-2.69-.31-3.09s-.8-.55-1.79-.56Zm21.46-8.42a22.83,22.83,0,0,0,3.59-.42,11,11,0,0,0,1.65-.4l.28.15C168,8.19,168,11,168,13V25.47c0,1.85,0,3,.31,3.38s.79.57,1.75.57v.82a22.13,22.13,0,0,0-3.28.32,6.87,6.87,0,0,0-1.69.42l-.41-.13V29.56A7.28,7.28,0,0,1,160.45,31c-4.17,0-6.88-2.9-6.88-7.41a10.36,10.36,0,0,1,.81-4.11,7.66,7.66,0,0,1,7.29-4.36,14.84,14.84,0,0,1,3,.3V12.18c0-1.91,0-2.91-.31-3.32s-.52-.47-1.66-.55v-.7Zm-.54,21.19a4.46,4.46,0,0,0,2.51-.62V18a4.28,4.28,0,0,0-3-1c-3,0-4.39,2-4.39,6.22C157.21,24.92,157.72,28.8,162.14,28.8Zm-83.37.44A5,5,0,0,1,74.63,31c-2.36,0-3.66-.83-4.24-2.71a13.34,13.34,0,0,1-.24-3.11c0-2.44,0-4.39,0-6.65V17.43h-2v-.61a7,7,0,0,0,1.9-1.06,10.92,10.92,0,0,0,2.85-3.66h.68v3.42h5.18v1.91H73.63v8c0,2.38.42,3.74,2.68,3.74a4.42,4.42,0,0,0,2.19-.57Z"/><path class="cls-3" d="M54.34,39.2h2.35v5.33h5.38V39.2h2.35V52.45H62.07V46.58H56.69v5.87H54.34Z"/><path class="cls-3" d="M67,39.2h8v2H69.38v3.38h4.76v2H69.38v3.92h5.84v2H67Z"/><path class="cls-3" d="M84.79,48.87H80.33l-1,3.58H76.9L81.22,39.2H84l4.3,13.25H85.82ZM84.25,47l-.46-1.62C83.36,44,83,42.49,82.6,41h-.08c-.38,1.47-.76,3-1.19,4.37L80.87,47Z"/><path class="cls-3" d="M90,39.2H92.4V50.47h5.5v2H90Z"/><path class="cls-3" d="M100.66,41.2H96.84v-2h10v2H103V52.45h-2.35Z"/><path class="cls-3" d="M108.83,39.2h2.35v5.33h5.37V39.2h2.35V52.45h-2.35V46.58h-5.37v5.87h-2.35Z"/><path class="cls-3" d="M132,39a5.19,5.19,0,0,1,3.76,1.69l-1.3,1.46A3.35,3.35,0,0,0,132.06,41c-2.19,0-3.73,1.82-3.73,4.8s1.41,4.85,3.65,4.85a3.54,3.54,0,0,0,2.77-1.31l1.31,1.43a5.29,5.29,0,0,1-4.13,1.92c-3.38,0-6-2.43-6-6.82S128.63,39,132,39Z"/><path class="cls-3" d="M144.6,48.87h-4.46l-1,3.58h-2.4L141,39.2h2.76l4.3,13.25h-2.46ZM144.06,47l-.46-1.62c-.43-1.39-.81-2.91-1.19-4.36h-.08c-.38,1.47-.76,3-1.19,4.36L140.68,47Z"/><path class="cls-3" d="M156.64,52.45l-2.87-5.18h-2v5.18h-2.35V39.2h4.49c2.76,0,4.86,1,4.86,3.94a3.71,3.71,0,0,1-2.65,3.79l3.16,5.52Zm-4.89-7h1.89c1.8,0,2.78-.77,2.78-2.26s-1-2.05-2.78-2.05h-1.89Z"/><path class="cls-3" d="M161.06,39.2h8v2h-5.62v3.38h4.76v2h-4.76v3.92h5.84v2h-8.19V39.2Z"/><path class="cls-2" d="M25,56.72C51.63,42.19,45.28,13.25,43.45,9H6.57C4.74,13.25-1.6,42.19,25,56.72"/><path class="cls-4" d="M14.94,12.74v.57a3.21,3.21,0,0,1,1.37-.64c-.24,1.08-.78,1.37-1.35,1.46l0,.92a4.92,4.92,0,0,1,1.74-1c-.32,1.38-1,1.88-1.71,2V17a7.43,7.43,0,0,1,2.19-1.18A2.47,2.47,0,0,1,15,17.84v.83a6.79,6.79,0,0,1,2.19-1.09A2.94,2.94,0,0,1,15,19.88v.71a7.18,7.18,0,0,1,2.19-1.09A2.68,2.68,0,0,1,15,21.77v.58a9.27,9.27,0,0,1,2.68-1.28A3.2,3.2,0,0,1,15,23.53v.67a4.77,4.77,0,0,1,1.62-.73A2.06,2.06,0,0,1,14.95,25v1.23a2.19,2.19,0,0,0,.39-.05A1.36,1.36,0,0,1,16.1,25a3.76,3.76,0,0,1-.26,1.13,7,7,0,0,0,.9-.27,2.41,2.41,0,0,1,.75-2.22,5.33,5.33,0,0,1,0,1.8,6.87,6.87,0,0,0,.93-.67,2.32,2.32,0,0,1,.4-2.44A6.41,6.41,0,0,1,19,24.17a9.86,9.86,0,0,0,.83-1c-.48-.57-.49-1.13.07-2.25a5.24,5.24,0,0,1,.38,1.67,5.14,5.14,0,0,0,.61-1A.67.67,0,0,1,21,21c.22-.27.53-.49.8-.31s.2.6.07.91a.55.55,0,0,1-.56.37A8.52,8.52,0,0,1,20.55,23a3,3,0,0,1,1.35.69c-.84.35-1.35.27-1.75-.08a9.68,9.68,0,0,1-1,1.05,2.67,2.67,0,0,1,1.35.79,1.7,1.7,0,0,1-2-.17,8,8,0,0,1-.94.74,3.21,3.21,0,0,1,1.24,1c-1,.24-1.72,0-2-.64a4.67,4.67,0,0,1-.9.29,2,2,0,0,1,.65.79c-.71,0-1.12-.19-1.22-.63-.15,0-.29.1-.43.1v1.4l-.87-.38v-1c-.09,0-.31-.08-.39-.1-.12.42-.43.58-1.12.58.15-.33.23-.57.58-.75a5.52,5.52,0,0,1-.91-.38c-.27.65-.89.93-2,.67a2.61,2.61,0,0,1,1.27-1,6.39,6.39,0,0,1-.82-.63,1.66,1.66,0,0,1-2,.23A2.42,2.42,0,0,1,10,24.7a9.45,9.45,0,0,1-.84-1,1.73,1.73,0,0,1-1.9.13A2,2,0,0,1,8.67,23c-.16-.25-.32-.51-.48-.79A.58.58,0,0,1,7.65,22c-.2-.27-.39-.82,0-1,.19-.17.68.08.84.38a.71.71,0,0,1,.05.61c.17.28.35.53.52.77a3.39,3.39,0,0,1,.3-1.86,2,2,0,0,1,.17,2.36c.3.36.54.62.81.91a3.89,3.89,0,0,1,.19-1.8,2.42,2.42,0,0,1,.44,2.38,5.26,5.26,0,0,0,.78.6,4.15,4.15,0,0,1-.08-1.82,2.36,2.36,0,0,1,.77,2.2,5.69,5.69,0,0,0,.92.33A2.87,2.87,0,0,1,13,24.95a1.19,1.19,0,0,1,.66,1.16c.09,0,.31.13.4.13l0-1.22a2,2,0,0,1-1.6-1.49,3.56,3.56,0,0,1,1.6.66v-.64a3.26,3.26,0,0,1-2.7-2.38,7.31,7.31,0,0,1,2.7,1.17v-.56a2.86,2.86,0,0,1-2.22-2.19,5.74,5.74,0,0,1,2.22,1v-.71a2.9,2.9,0,0,1-2.22-2.23,5.46,5.46,0,0,1,2.22,1v-.8a2.48,2.48,0,0,1-2.22-2,5.76,5.76,0,0,1,2.22,1.08V16c-.72-.08-1.38-.53-1.75-1.92a3.79,3.79,0,0,1,1.75.92v-.92c-.55-.09-1-.32-1.33-1.39a2.38,2.38,0,0,1,1.34.56v-.55a1.66,1.66,0,0,1-.27-1.4c0-.45.21-.78.69-.81s.65.35.71.81a1.6,1.6,0,0,1-.28,1.4"/><polyline class="cls-4" points="35.14 17.3 34.21 17.05 33.72 16.81 33.63 16.93 34.13 17.18 34.66 18 34.61 17.42 35.14 17.3"/><path class="cls-4" d="M35.48,24.12c.27-3.5.79-4.45,1.64-5.15l.14-.12-.36-2.31-.29,0a2,2,0,0,0-1,.7V15.54L33,14V15.3a5.18,5.18,0,0,0-.46-.39,1.14,1.14,0,0,0-.74-.29,1.21,1.21,0,0,0-.36.06.78.78,0,0,1-.59,0,2.42,2.42,0,0,0-2.6.74,3,3,0,0,0-.18,2.69,8.63,8.63,0,0,0,1.22,2.18c.24.32,2.3,2.51,2.75,3l1,.91v.8l-.52-.37-.68,1.6.21.14c.48.29,1,1.13,1.32,5.49-1.25.52-2.84,2-2.9,3.51,0,.73.32,1.75,2.12,2.44l1.1.44c0,.82,0,1.71.06,2.67a1.78,1.78,0,0,0-1.07,1.05c-.11.47.2.92.85,1.36l.25.1c0,.26,0,.55,0,.82a2.08,2.08,0,0,0-.65.49c-.11.14-.23.29-.16.43a.22.22,0,0,0,.21.12,1.4,1.4,0,0,0,.48-.15l.17-.06a.8.8,0,0,0,.74.52.73.73,0,0,0,.7-.59v-.06c0-.13,0-.24,0-.36a.92.92,0,0,0,.41-.74,1.22,1.22,0,0,0-.43-.94c0-.39,0-.77,0-1.15,1.16-.27,2.33-1,2.45-2,.06-.62-.27-1.52-2.24-2.32l-.23-.09c0-1.67,0-3.17,0-4.53,2.05-1,3.45-2,3.62-3.31S37.9,26.52,35.48,24.12Zm.94-6.83.21,1.33c-.88.76-1.4,1.77-1.7,5-.41-.4-.87-.82-1.36-1.28V17.13a.45.45,0,0,0,.16-.08l.36.18.51.8.15,0,0-.52.28,0v.78l.56.13A3.07,3.07,0,0,1,36.42,17.29ZM35,15.89v1.3l-.72-.2-.37-.19a1.13,1.13,0,0,0-.32-.82V15Zm-2.57,5.35c-3.21-2.89-3.33-4.2-3.13-4.75a1.17,1.17,0,0,1,1.22-.58c.11,0,.11,0,.15.16s.11.51.73.73a8.71,8.71,0,0,0,1.61.39v4.59C32.8,21.59,32.6,21.42,32.41,21.23ZM32,35.37c0-.41.4-.94,1.42-1.71,0,.87.1,1.85.12,2.94C32.67,36.19,32.1,35.78,32,35.37Zm2.58,7.13a2.4,2.4,0,0,1-.31-.23c0-1.39,0-2.67-.07-3.82l.38.16C34.61,39.82,34.61,41.12,34.61,42.5Zm-.27,2.35c0-.44,0-.88,0-1.29a.55.55,0,0,1,.29.15c0,.4,0,.76,0,1.16C34.6,45,34.44,45,34.34,44.84Zm1.88-5c0,.13-.16.37-1,.67,0-.54,0-1.06,0-1.57C35.81,39.22,36.23,39.53,36.22,39.8Zm-2-2.91c-.31-9.13-1-10.43-1.68-10.94l.22-.47.84.59V24.68l.31.27c.31.27.6.55.89.8-.13,2.59-.17,6.21-.17,11.31Zm2.86-7.65c-.09.66-.71,1.23-1.83,1.78,0-1.86.06-3.41.12-4.72C36.42,27.35,37.2,28.35,37.05,29.24Z"/><path class="cls-5" d="M31.61,16a.7.7,0,0,0-.16,0,.23.23,0,1,0-.07.45.25.25,0,0,0,.16.05.27.27,0,0,0,.22-.12A.29.29,0,0,0,31.61,16Z"/><path class="cls-5" d="M32.11,15.09a.28.28,0,0,0-.22-.08.19.19,0,0,0-.15.05.18.18,0,0,0-.06.15.3.3,0,0,0,.1.22.36.36,0,0,0,.23.1.24.24,0,0,0,.16-.06.27.27,0,0,0,.05-.15A.36.36,0,0,0,32.11,15.09Z"/><path class="cls-4" d="M19.91,37.75V33.42H12.22v7.7h2.37v4.35H22.3V37.75ZM17.64,34.4H18.9v3.22H17.64Zm1.29,6.71v1H18v-1ZM13.36,34.4h3.23v1.25H13.36Zm1.23,5.74H13.34V36.91h1.25Zm1-3.37h1v1h-1Zm.12,2.1H18.9v1.27H15.69ZM17,44.35H15.7V41.12H17Zm4.16,0H17.92V43h3.22Zm0-2.23H19.91V38.85h1.28Z"/><g class="cls-6"><polygon class="cls-4" points="25.4 57.3 24.61 57.3 24.61 30.02 4.79 30.02 4.79 29.22 24.61 29.22 24.61 8.73 25.4 8.73 25.4 57.3"/></g></g></svg>